<svg id="Ebene_3" data-name="Ebene 3" xmlns="http://www.w3.org/2000/svg" xmlns:xlink="http://www.w3.org/1999/xlink" viewBox="0 0 722 696"><defs><style>.cls-1{fill:url(#Unbenannter_Verlauf_7);}.cls-2{fill:url(#Unbenannter_Verlauf_7-2);}.cls-3{fill:url(#Unbenannter_Verlauf_7-3);}.cls-4{fill:#f2f2f2;}</style><linearGradient id="Unbenannter_Verlauf_7" x1="614.89" y1="612.04" x2="95.52" y2="92.67" gradientUnits="userSpaceOnUse"><stop offset="0" stop-color="#9e005d"/><stop offset="0.39" stop-color="#c12c7a"/><stop offset="1" stop-color="#ff7bac"/></linearGradient><linearGradient id="Unbenannter_Verlauf_7-2" x1="614.89" y1="611.04" x2="95.52" y2="91.67" xlink:href="#Unbenannter_Verlauf_7"/><linearGradient id="Unbenannter_Verlauf_7-3" x1="696.74" y1="683.74" x2="26.68" y2="13.68" xlink:href="#Unbenannter_Verlauf_7"/></defs><rect class="cls-1" x="73.16" y="75.31" width="563" height="553" rx="64.06"/><rect class="cls-2" x="73.16" y="74.31" width="563" height="553" rx="64.06"/><rect class="cls-3" width="722" height="696" rx="64.06"/><path class="cls-4" d="M372.9,733.25c-5.28,0-8.19,0-8.69-.76-.33-.49.21-1.79,1-3.59.36-.85.77-1.83,1.2-3l201.72-534a17,17,0,0,1,15.86-11,16.85,16.85,0,0,1,6,1.1l23.49,8.88a17,17,0,0,1,9.86,21.85l-193,510.35c-.25.67-.49,1.31-.71,1.92-2.18,6-3,8.21-12.65,8.21Z" transform="translate(-290.74 -104.44)"/><path class="cls-4" d="M584,181.44a16.43,16.43,0,0,1,5.82,1.07l23.48,8.88a16.47,16.47,0,0,1,9.57,21.21l-193,510.34c-.26.68-.5,1.32-.72,1.93-2.15,5.89-2.88,7.88-12.18,7.88h-44c-4.23,0-7.89,0-8.28-.53-.15-.33.5-1.88,1-3.13.35-.86.76-1.83,1.2-3l201.72-534A16.53,16.53,0,0,1,584,181.44m0-1a17.46,17.46,0,0,0-16.33,11.28l-201.72,534c-3,8-5,8,7,8h44c11,0,11-3,13.83-10.46L623.76,213a17.46,17.46,0,0,0-10.15-22.5l-23.49-8.88a17.37,17.37,0,0,0-6.17-1.13Z" transform="translate(-290.74 -104.44)"/><rect class="cls-4" x="371.66" y="76.88" width="59" height="553.19" rx="16.28"/><path class="cls-4" d="M705.12,181.82A15.8,15.8,0,0,1,720.9,197.6V718.23A15.8,15.8,0,0,1,705.12,734H678.68a15.8,15.8,0,0,1-15.78-15.78V197.6a15.8,15.8,0,0,1,15.78-15.78h26.44m0-1H678.68A16.78,16.78,0,0,0,661.9,197.6V718.23A16.78,16.78,0,0,0,678.68,735h26.44a16.78,16.78,0,0,0,16.78-16.78V197.6a16.78,16.78,0,0,0-16.78-16.78Z" transform="translate(-290.74 -104.44)"/><rect class="cls-4" x="279.66" y="76.88" width="59" height="553.19" rx="18.89"/><path class="cls-4" d="M610.51,181.82a18.41,18.41,0,0,1,18.39,18.39V715.62A18.41,18.41,0,0,1,610.51,734H589.29a18.41,18.41,0,0,1-18.39-18.39V200.21a18.4,18.4,0,0,1,18.39-18.39h21.22m0-1H589.29a19.39,19.39,0,0,0-19.39,19.39V715.62A19.39,19.39,0,0,0,589.29,735h21.22a19.39,19.39,0,0,0,19.39-19.39V200.21a19.39,19.39,0,0,0-19.39-19.39Z" transform="translate(-290.74 -104.44)"/><path class="cls-4" d="M706.19,734.12a16.91,16.91,0,0,1-6-1.1l-23.49-8.88a17,17,0,0,1-9.85-21.86L859.89,192c.26-.68.49-1.32.71-1.92,2.18-6,3-8.21,12.65-8.21h44c5.29,0,8.19,0,8.7.76.32.48-.22,1.79-1,3.59-.35.84-.76,1.83-1.2,3L722,723.17a17,17,0,0,1-15.85,11Z" transform="translate(-290.74 -104.44)"/><path class="cls-4" d="M873.25,182.32h44c4.24,0,7.89,0,8.28.53.15.33-.49,1.88-1,3.13-.36.86-.77,1.83-1.2,3L721.58,723a16.47,16.47,0,0,1-21.21,9.57l-23.49-8.89a16.48,16.48,0,0,1-9.57-21.21L860.36,192.13c.25-.68.49-1.32.71-1.93,2.15-5.89,2.88-7.88,12.18-7.88m0-1c-11,0-11,3-13.83,10.45l-193,510.34a17.45,17.45,0,0,0,10.15,22.5L700,733.49a17.45,17.45,0,0,0,22.5-10.15l201.74-534c3-8,5-8-7-8Z" transform="translate(-290.74 -104.44)"/></svg>
